<svg width="13" height="12" viewBox="0 0 13 12" fill="none" xmlns="http://www.w3.org/2000/svg">
    <path fill-rule="evenodd" clip-rule="evenodd" d="M6.66979 0.974813C6.62522 1.0399 6.60089 1.11671 6.59986 1.19559V1.20599C6.59917 1.31207 6.55637 1.41353 6.48087 1.48805C6.40537 1.56257 6.30335 1.60405 6.19727 1.60336C6.09118 1.60267 5.98971 1.55987 5.91519 1.48437C5.84066 1.40888 5.79918 1.30687 5.79987 1.20079C5.79978 0.980672 5.86023 0.764768 5.9746 0.576691C6.08897 0.388613 6.25286 0.235604 6.44834 0.134398C6.64383 0.0331912 6.86338 -0.0123155 7.08299 0.00285426C7.3026 0.018024 7.5138 0.0932861 7.69352 0.22041C7.87323 0.347533 8.01452 0.521623 8.10194 0.723639C8.18936 0.925656 8.21954 1.14782 8.18918 1.36584C8.15883 1.58385 8.0691 1.78932 7.92982 1.95978C7.79054 2.13023 7.60706 2.25911 7.39946 2.33231V2.52909L9.13904 3.22544L10.0754 3.53622C10.5853 3.70567 11.0509 3.98709 11.4378 4.35986C11.8248 4.73262 12.1234 5.18727 12.3118 5.69046L12.9746 7.45993C13.0462 7.65192 12.9618 7.8667 12.7786 7.9583L10.5998 9.04622V11.6C10.5998 11.7061 10.5577 11.8078 10.4827 11.8829C10.4077 11.9579 10.3059 12 10.1998 12H3.79869C3.6926 12 3.59086 11.9579 3.51584 11.8829C3.44083 11.8078 3.39869 11.7061 3.39869 11.6L3.39909 9.04782L1.22111 7.9579C1.1327 7.91376 1.06378 7.83844 1.02766 7.74648C0.991537 7.65451 0.99077 7.55243 1.02551 7.45993L1.6895 5.68926C1.8778 5.18711 2.17593 4.73337 2.56209 4.36121C2.94826 3.98905 3.4127 3.70787 3.92148 3.53822L4.86228 3.22464L6.59946 2.53149L6.59986 2.00033C6.59997 1.89432 6.64216 1.79269 6.71716 1.71777C6.79216 1.64285 6.89384 1.60076 6.99986 1.60076C7.07875 1.60075 7.15588 1.57742 7.22154 1.5337C7.2872 1.48997 7.33846 1.42781 7.36889 1.35503C7.39931 1.28225 7.40753 1.20209 7.39251 1.12465C7.37749 1.04721 7.33991 0.975939 7.28449 0.9198C7.22907 0.863662 7.15828 0.825164 7.08104 0.809149C7.00379 0.793134 6.92353 0.800317 6.85036 0.829794C6.77718 0.859271 6.71436 0.909726 6.66979 0.974813ZM7.00021 4.20645C6.53259 4.2066 6.07971 4.0429 5.72027 3.7438L7.00226 3.23184L8.27985 3.743C7.9206 4.04232 7.46782 4.20631 7.00021 4.20645Z" fill="black"/>
</svg>

