<svg width="1383" height="977" viewBox="0 0 1383 977" fill="none" xmlns="http://www.w3.org/2000/svg">
    <path d="M528.688 198.466C528.688 202.155 528.688 205.317 528.688 208.479C534.485 351.296 565.051 456.696 515.513 459.858C464.921 462.493 468.61 466.709 460.178 442.994C453.327 424.549 447.003 405.577 444.895 385.551C443.841 371.849 442.787 357.62 442.26 343.918C441.206 320.73 440.152 298.069 439.098 274.881C438.571 268.557 438.571 262.233 438.571 255.909C438.571 251.693 436.463 251.166 433.301 252.22C424.342 254.855 415.383 257.49 406.424 261.179C404.316 261.706 401.681 264.868 401.681 267.503C397.465 292.272 393.776 317.041 390.614 342.337C387.979 362.363 386.398 382.389 384.817 402.415C383.763 417.171 384.29 431.4 383.236 445.629C382.182 461.966 377.966 481.465 358.467 479.884C346.346 478.83 344.765 463.02 345.292 449.845C351.616 389.767 358.467 329.689 364.791 271.719C350.562 276.989 342.657 272.773 342.13 264.341C341.603 260.652 354.251 255.382 368.48 250.112C371.115 236.937 373.75 223.235 376.385 210.06C380.074 191.615 382.709 173.697 386.925 155.252C390.614 137.334 395.884 119.416 400.1 101.498C403.789 86.742 406.951 71.986 410.64 57.23C415.383 40.366 420.126 22.975 425.396 6.11097C428.558 -2.84801 431.72 -12.334 434.882 -21.293C434.882 -21.293 435.409 -21.293 435.409 -21.82C435.936 -23.401 436.463 -24.455 436.99 -26.036C443.841 -45.535 471.772 -118.261 498.122 -107.194C528.161 -94.019 543.971 -82.425 537.647 -6.53702C531.323 58.284 526.58 134.172 528.688 198.466ZM459.651 22.448C461.232 15.07 462.286 7.16499 463.867 -0.213009C463.34 -0.213009 462.286 -0.213009 461.759 -0.740003C439.098 77.783 421.18 157.887 406.424 238.518C409.059 238.518 410.113 239.045 411.167 239.045C419.072 236.41 426.977 233.248 434.882 231.14C438.044 230.086 439.098 228.505 439.098 225.343C439.098 212.168 438.571 199.52 439.625 186.345C440.679 164.211 442.26 142.077 443.841 119.943C446.476 86.742 452.273 54.595 459.651 22.448ZM737.034 175.278C739.669 182.129 736.507 189.507 729.656 192.142C717.535 196.885 698.563 205.317 678.537 216.384C679.064 222.708 679.064 230.086 678.537 239.045L676.429 260.652C670.105 285.421 662.2 304.92 653.241 318.622C623.729 360.255 595.798 357.093 579.461 349.715C572.083 347.08 564.178 341.81 557.327 329.689C550.476 317.041 549.422 302.812 554.692 288.583C562.597 265.922 587.366 241.153 627.418 215.857C624.256 200.574 612.135 204.79 612.135 204.79C606.338 206.371 565.759 212.695 558.381 183.183C557.327 180.021 556.8 176.859 556.8 172.643C554.692 132.064 570.502 68.824 616.351 60.392C616.351 60.392 654.295 55.649 657.984 74.094C662.727 97.282 637.958 134.699 628.999 147.874C627.945 149.455 626.891 150.509 625.837 152.09C614.243 167.9 603.176 183.71 603.176 183.71C603.703 183.71 652.714 166.846 670.105 191.615C697.509 177.913 719.116 168.954 720.17 168.427C726.494 165.792 734.399 168.954 737.034 175.278ZM595.798 144.712C609.5 131.01 621.621 108.349 624.783 93.593C625.31 89.377 624.783 86.742 618.986 85.161C607.919 104.133 600.541 124.159 595.798 144.712ZM627.945 259.071C627.945 254.328 628.472 250.112 628.472 245.896C604.23 262.233 584.731 280.151 578.407 297.015C575.772 304.92 576.299 311.244 579.988 317.568C583.677 324.946 587.366 326 590.001 326C595.798 327.054 603.176 323.365 609.5 319.149C619.513 306.501 624.783 283.313 627.945 259.071ZM879.662 168.427C887.04 170.008 891.783 176.859 890.202 183.71C888.094 191.615 874.392 243.788 848.042 281.205C814.841 329.162 777.951 323.892 777.951 323.892C757.398 325.473 717.346 317.568 712.076 240.626C712.076 240.626 712.076 240.626 712.076 240.099C711.022 230.086 711.022 219.546 712.076 209.006C715.765 125.74 755.29 81.999 763.195 76.202C772.154 69.351 817.476 58.811 831.178 101.498C831.178 101.498 836.975 118.889 828.016 122.051C820.111 125.213 813.26 108.876 812.733 107.822C809.571 102.025 802.72 100.444 798.504 106.241C798.504 106.241 773.208 135.226 775.316 192.142C776.897 248.531 783.748 287.529 797.977 288.056C802.72 288.056 807.463 286.475 811.152 283.84C839.083 260.652 858.582 201.101 863.852 178.44C865.433 171.589 872.811 166.846 879.662 168.427ZM1027.44 168.427C1034.29 170.008 1038.51 177.386 1036.4 183.71C1033.76 194.777 1004.78 290.691 949.444 299.65C947.863 299.65 946.809 299.65 945.755 299.65C945.755 299.65 927.31 301.758 910.973 292.799C899.379 287.529 887.258 278.57 876.718 263.814C867.759 250.112 862.489 234.829 860.908 219.019C859.854 207.425 859.854 195.304 860.908 183.183C862.489 171.062 864.597 158.941 867.759 147.347C867.759 147.347 878.826 96.228 916.77 50.906C916.77 50.379 916.77 50.379 916.77 50.379C917.824 48.798 919.405 47.217 920.459 46.163V45.636C943.647 19.813 979.483 38.258 982.118 52.487C982.645 54.068 982.645 55.649 983.172 57.23C986.861 75.675 983.172 93.593 977.902 110.984C969.997 135.753 961.565 159.995 952.606 184.237C948.39 196.358 942.066 207.425 935.215 218.492C930.999 226.924 932.58 234.829 934.161 242.734C935.215 248.531 937.323 254.328 939.431 259.598C941.539 265.395 947.336 274.354 957.876 269.084C961.038 266.976 964.2 264.341 967.362 261.179C968.416 260.125 969.47 259.071 969.997 258.017C988.442 237.464 1003.73 202.155 1011.1 177.386C1012.68 170.535 1020.06 166.319 1027.44 168.427ZM927.837 123.105C926.256 143.131 928.364 165.265 928.364 165.265C946.282 139.442 954.187 88.85 954.187 81.999C954.714 65.662 951.025 64.608 947.336 69.351C941.012 74.621 928.364 90.431 927.31 124.159L927.837 123.105ZM184.388 651.466C184.388 655.155 184.388 658.317 184.388 661.479C190.185 804.296 220.751 909.696 171.213 912.858C120.621 915.493 124.31 919.709 115.878 895.994C109.027 877.549 102.703 858.577 100.595 838.551C99.5413 824.849 98.4873 810.62 97.9603 796.918C96.9063 773.73 95.8523 751.069 94.7983 727.881C94.2713 721.557 94.2713 715.233 94.2713 708.909C94.2713 704.693 92.1633 704.166 89.0013 705.22C80.0423 707.855 71.0833 710.49 62.1243 714.179C60.0163 714.706 57.3813 717.868 57.3813 720.503C53.1653 745.272 49.4763 770.041 46.3143 795.337C43.6793 815.363 42.0983 835.389 40.5173 855.415C39.4633 870.171 39.9903 884.4 38.9363 898.629C37.8823 914.966 33.6663 934.465 14.1673 932.884C2.04633 931.83 0.465332 916.02 0.992332 902.845C7.31633 842.767 14.1673 782.689 20.4913 724.719C6.26233 729.989 -1.64267 725.773 -2.16967 717.341C-2.69667 713.652 9.95133 708.382 24.1803 703.112C26.8153 689.937 29.4503 676.235 32.0853 663.06C35.7743 644.615 38.4093 626.697 42.6253 608.252C46.3143 590.334 51.5843 572.416 55.8003 554.498C59.4893 539.742 62.6513 524.986 66.3403 510.23C71.0833 493.366 75.8263 475.975 81.0963 459.111C84.2583 450.152 87.4203 440.666 90.5823 431.707C90.5823 431.707 91.1093 431.707 91.1093 431.18C91.6363 429.599 92.1633 428.545 92.6903 426.964C99.5413 407.465 127.472 334.739 153.822 345.806C183.861 358.981 199.671 370.575 193.347 446.463C187.023 511.284 182.28 587.172 184.388 651.466ZM115.351 475.448C116.932 468.07 117.986 460.165 119.567 452.787C119.04 452.787 117.986 452.787 117.459 452.26C94.7983 530.783 76.8803 610.887 62.1243 691.518C64.7593 691.518 65.8133 692.045 66.8673 692.045C74.7723 689.41 82.6773 686.248 90.5823 684.14C93.7443 683.086 94.7983 681.505 94.7983 678.343C94.7983 665.168 94.2713 652.52 95.3253 639.345C96.3793 617.211 97.9603 595.077 99.5413 572.943C102.176 539.742 107.973 507.595 115.351 475.448ZM445.435 630.386C447.016 637.237 442.799 644.088 436.475 645.669C435.949 645.669 406.437 653.047 374.289 666.749C373.763 671.492 373.235 675.181 372.181 678.343C370.074 687.302 353.736 766.352 321.589 785.324C307.887 793.229 296.82 800.08 280.483 792.175C279.956 798.499 283.118 971.355 279.956 985.057C276.267 998.232 273.632 1011.93 268.889 1024.58C267.308 1029.33 262.565 1034.6 255.187 1035.65C242.012 1037.23 228.837 1039.87 215.135 1035.65C210.919 1034.07 189.312 1014.57 186.677 1009.83C173.502 991.381 165.07 964.504 161.381 929.195C154.53 864.374 171.921 798.499 189.839 750.015C193.001 738.421 197.217 726.827 201.433 715.233C206.703 702.058 210.392 688.356 210.919 674.127V674.654L214.608 551.863C216.716 531.31 233.053 523.932 237.269 522.878C242.012 521.297 253.606 521.297 253.606 521.297C258.876 526.567 264.146 532.364 269.416 537.634C270.47 539.215 270.997 541.85 272.051 543.431C274.159 546.593 296.82 522.351 305.779 512.338C313.684 503.906 323.697 499.69 334.764 496.528C340.561 494.42 365.857 488.096 376.924 529.202C380.086 541.85 380.613 591.915 380.086 595.604C379.559 598.766 378.506 618.265 376.924 637.764C405.383 627.224 429.097 621.427 430.151 620.9C437.003 619.319 443.853 623.535 445.435 630.386ZM182.988 926.56C187.731 972.409 200.379 994.016 211.446 1004.56C229.364 1019.31 224.621 936.573 221.459 895.994C220.932 888.616 219.878 881.765 219.351 874.914C219.351 874.387 219.351 874.387 219.351 874.387C218.297 863.32 217.77 852.253 216.716 840.659C215.662 819.579 214.608 798.499 213.554 776.892C213.027 768.987 213.027 761.082 212.5 753.177C194.582 799.553 176.137 864.374 182.988 926.56ZM309.468 732.097C316.846 723.138 321.589 708.909 324.751 693.626C306.306 706.801 293.131 723.138 295.239 741.056C295.766 747.38 297.347 748.961 297.347 748.961C297.347 748.961 297.874 748.961 298.401 748.961C302.617 743.164 305.779 737.894 308.941 732.097C308.941 732.097 308.941 732.097 309.468 732.097ZM328.44 660.952C329.494 639.872 328.44 622.481 328.44 622.481C327.913 604.563 327.386 586.118 326.859 568.2C326.859 563.984 325.278 560.295 324.224 556.079C323.697 556.079 323.17 556.079 322.643 556.079C310.522 577.686 298.401 599.293 285.226 623.535C283.645 631.44 281.01 643.034 280.483 654.101C279.429 665.168 279.956 676.762 279.956 687.829C279.956 692.572 279.956 697.842 280.483 702.585C289.969 687.829 305.779 674.127 328.44 660.952ZM663.131 630.386C664.712 637.237 660.496 644.088 654.172 645.669C653.645 645.669 624.133 653.047 591.986 666.749C591.459 671.492 590.932 675.181 589.878 678.343C587.77 687.302 571.433 766.352 539.286 785.324C525.584 793.229 514.517 800.08 498.18 792.175C497.653 798.499 500.815 971.355 497.653 985.057C493.964 998.232 491.329 1011.93 486.586 1024.58C485.005 1029.33 480.262 1034.6 472.884 1035.65C459.709 1037.23 446.534 1039.87 432.832 1035.65C428.616 1034.07 407.009 1014.57 404.374 1009.83C391.199 991.381 382.767 964.504 379.078 929.195C372.227 864.374 389.618 798.499 407.536 750.015C410.698 738.421 414.914 726.827 419.13 715.233C424.4 702.058 428.089 688.356 428.616 674.127V674.654L432.305 551.863C434.413 531.31 450.75 523.932 454.966 522.878C459.709 521.297 471.303 521.297 471.303 521.297C476.573 526.567 481.843 532.364 487.113 537.634C488.167 539.215 488.694 541.85 489.748 543.431C491.856 546.593 514.517 522.351 523.476 512.338C531.381 503.906 541.394 499.69 552.461 496.528C558.258 494.42 583.554 488.096 594.621 529.202C597.783 541.85 598.31 591.915 597.783 595.604C597.256 598.766 596.202 618.265 594.621 637.764C623.079 627.224 646.794 621.427 647.848 620.9C654.699 619.319 661.55 623.535 663.131 630.386ZM400.685 926.56C405.428 972.409 418.076 994.016 429.143 1004.56C447.061 1019.31 442.318 936.573 439.156 895.994C438.629 888.616 437.575 881.765 437.048 874.914C437.048 874.387 437.048 874.387 437.048 874.387C435.994 863.32 435.467 852.253 434.413 840.659C433.359 819.579 432.305 798.499 431.251 776.892C430.724 768.987 430.724 761.082 430.197 753.177C412.279 799.553 393.834 864.374 400.685 926.56ZM527.165 732.097C534.543 723.138 539.286 708.909 542.448 693.626C524.003 706.801 510.828 723.138 512.936 741.056C513.463 747.38 515.044 748.961 515.044 748.961C515.044 748.961 515.571 748.961 516.098 748.961C520.314 743.164 523.476 737.894 526.638 732.097C526.638 732.097 526.638 732.097 527.165 732.097ZM546.137 660.952C547.191 639.872 546.137 622.481 546.137 622.481C545.61 604.563 545.083 586.118 544.556 568.2C544.556 563.984 542.975 560.295 541.921 556.079C541.394 556.079 540.867 556.079 540.34 556.079C528.219 577.686 516.098 599.293 502.923 623.535C501.342 631.44 498.707 643.034 498.18 654.101C497.126 665.168 497.653 676.762 497.653 687.829C497.653 692.572 497.653 697.842 498.18 702.585C507.666 687.829 523.476 674.127 546.137 660.952ZM877.665 621.427C885.043 623.008 889.259 629.859 888.205 636.71C874.503 701.531 863.436 738.948 853.423 754.231C842.356 771.622 830.235 780.581 817.06 782.689C814.425 783.743 811.263 784.27 807.574 784.797C792.818 785.324 780.17 780.581 770.684 768.46C756.982 750.542 752.766 729.462 750.131 708.382C748.55 690.991 744.861 651.466 743.807 651.466C741.172 660.952 738.537 669.911 735.902 679.397C732.213 694.153 729.578 708.909 725.362 723.138C721.146 737.367 703.228 780.054 699.012 786.905C692.161 796.391 680.567 798.499 669.5 793.756C649.474 784.797 643.15 767.933 641.569 748.961C640.515 730.516 640.515 712.071 641.569 693.626C643.15 666.222 650.001 639.872 656.325 612.995C661.595 590.334 671.608 569.254 682.148 549.228C691.634 532.364 706.917 520.243 727.997 517.608C733.267 517.081 738.537 516.554 744.334 516.027C750.658 515.5 752.766 504.96 753.82 502.325C757.509 492.839 763.833 483.353 772.265 478.083C781.224 472.813 807.574 474.921 809.155 474.921C818.114 473.867 824.438 478.083 826.019 486.515C827.6 495.474 824.438 531.31 823.384 540.269C822.33 551.336 806.52 664.641 805.466 680.978C804.939 689.41 800.196 752.65 813.371 757.393C818.114 756.866 824.438 751.069 830.762 741.056C838.667 728.408 849.207 691.518 861.855 631.44C863.436 624.589 870.287 620.373 877.665 621.427ZM678.459 698.369C688.999 705.747 728.524 595.077 742.753 539.742C729.578 533.945 719.565 535.526 711.66 545.539C702.701 556.606 698.485 570.308 692.161 582.429C686.364 594.023 678.986 623.535 678.459 626.17V626.697C678.459 626.697 663.703 688.356 678.459 698.369ZM1065.95 621.954C1072.27 624.589 1075.43 631.44 1073.33 638.291C1067 655.155 1009.56 802.715 956.859 825.376C951.589 827.484 946.319 828.011 941.049 828.538C920.496 831.173 907.848 822.214 898.889 811.674C889.403 801.134 886.241 787.959 884.133 774.784C879.39 737.894 883.079 702.058 895.727 667.276C896.781 664.641 897.308 661.479 897.835 659.898C890.984 656.736 884.133 654.628 878.336 650.939C866.215 644.088 861.999 637.237 860.945 627.224V626.697C860.945 626.697 860.945 626.17 860.945 625.116C860.945 620.9 860.945 616.157 861.472 610.36C861.999 608.252 861.999 606.671 862.526 604.563C866.215 571.362 877.809 514.446 914.172 518.135C966.872 523.932 909.956 602.982 897.835 618.792C897.835 620.373 898.362 621.954 898.889 623.535C900.47 629.859 902.578 630.386 907.848 626.697C920.496 616.684 928.928 603.509 936.306 590.334C942.63 579.267 948.954 569.254 956.332 559.241C957.913 556.606 963.183 555.552 965.818 556.079C976.885 558.714 987.952 561.876 995.857 571.362C997.965 573.47 998.492 577.159 999.546 580.321C1000.07 581.902 1002.71 592.969 999.019 597.712C993.222 606.144 946.319 701.531 943.684 711.017C942.103 718.395 936.833 768.46 936.833 781.635C936.833 787.959 936.306 801.661 946.846 802.188C950.535 802.188 964.764 787.432 967.399 783.743C983.209 758.447 998.492 732.624 1014.3 706.801C1016.41 703.639 1041.71 648.831 1049.61 629.332C1051.72 622.481 1059.1 619.319 1065.95 621.954ZM1211.68 621.427C1218.54 623.008 1222.75 630.386 1220.64 636.71C1218.01 647.777 1189.02 743.691 1133.69 752.65C1132.11 752.65 1131.05 752.65 1130 752.65C1130 752.65 1111.55 754.758 1095.22 745.799C1083.62 740.529 1071.5 731.57 1060.96 716.814C1052 703.112 1046.73 687.829 1045.15 672.019C1044.1 660.425 1044.1 648.304 1045.15 636.183C1046.73 624.062 1048.84 611.941 1052 600.347C1052 600.347 1063.07 549.228 1101.01 503.906C1101.01 503.379 1101.01 503.379 1101.01 503.379C1102.07 501.798 1103.65 500.217 1104.7 499.163V498.636C1127.89 472.813 1163.73 491.258 1166.36 505.487C1166.89 507.068 1166.89 508.649 1167.42 510.23C1171.11 528.675 1167.42 546.593 1162.15 563.984C1154.24 588.753 1145.81 612.995 1136.85 637.237C1132.63 649.358 1126.31 660.425 1119.46 671.492C1115.24 679.924 1116.82 687.829 1118.41 695.734C1119.46 701.531 1121.57 707.328 1123.68 712.598C1125.78 718.395 1131.58 727.354 1142.12 722.084C1145.28 719.976 1148.44 717.341 1151.61 714.179C1152.66 713.125 1153.71 712.071 1154.24 711.017C1172.69 690.464 1187.97 655.155 1195.35 630.386C1196.93 623.535 1204.31 619.319 1211.68 621.427ZM1112.08 576.105C1110.5 596.131 1112.61 618.265 1112.61 618.265C1130.53 592.442 1138.43 541.85 1138.43 534.999C1138.96 518.662 1135.27 517.608 1131.58 522.351C1125.26 527.621 1112.61 543.431 1111.55 577.159L1112.08 576.105ZM1369.92 620.373C1377.29 620.9 1382.56 627.224 1382.04 634.075C1380.46 655.155 1365.17 838.551 1300.88 875.441C1292.97 879.657 1284.02 882.292 1275.58 882.292C1209.71 864.374 1194.43 772.676 1192.84 702.058C1192.84 696.788 1193.37 690.991 1193.37 685.194C1193.37 678.87 1193.37 672.546 1193.37 666.222C1193.37 666.222 1195.48 634.602 1196.01 618.265C1196.53 614.576 1196.53 611.941 1196.53 610.36C1196.53 589.28 1200.22 568.727 1202.33 548.174C1205.49 513.919 1213.4 480.191 1223.41 446.99C1229.73 424.856 1235 402.195 1243.96 381.115C1255.03 353.184 1270.31 326.834 1292.97 305.227C1297.19 301.011 1326.18 285.728 1329.34 285.201C1335.13 283.62 1349.36 287.836 1352.53 292.052C1355.69 295.214 1358.85 299.957 1362.54 302.065C1377.29 309.443 1379.4 321.037 1378.88 334.739C1378.35 356.873 1371.5 376.899 1362.01 396.925C1358.32 405.884 1354.11 414.843 1349.36 423.275C1341.99 436.977 1334.08 450.152 1326.7 463.854C1322.49 470.705 1318.27 478.083 1314.05 484.934C1306.68 497.582 1299.83 509.703 1292.45 521.824C1288.76 527.621 1284.54 533.418 1280.33 539.215C1273.48 547.12 1272.95 557.133 1271.37 566.619C1269.79 578.74 1269.79 591.388 1268.21 603.509C1267.15 613.522 1263.99 624.062 1263.99 634.075C1263.46 651.466 1264.52 668.857 1265.57 686.248C1266.1 698.896 1267.15 711.544 1268.73 724.192C1270.31 736.313 1271.89 748.434 1274 760.555C1277.16 776.365 1280.33 792.175 1284.02 807.985C1285.07 812.201 1286.12 816.944 1287.7 821.687C1291.92 833.281 1299.3 842.24 1308.78 828.538C1313 821.687 1317.22 813.782 1321.43 803.242C1323.01 797.972 1324.59 793.756 1325.65 790.594C1330.92 775.311 1336.19 756.866 1340.93 733.678C1352 681.505 1355.69 633.021 1355.69 632.494C1356.21 625.116 1362.54 620.373 1369.92 620.373ZM1295.61 446.99C1291.92 462.8 1288.76 478.61 1285.07 494.42C1285.6 494.42 1285.6 494.42 1285.6 494.42C1288.76 490.204 1292.45 485.988 1295.08 481.245C1307.2 460.692 1319.32 440.139 1330.92 419.059C1344.62 394.817 1357.27 370.048 1361.48 342.644C1363.59 331.05 1359.38 322.618 1347.78 317.875C1344.09 316.294 1341.46 316.294 1339.35 321.037C1336.72 325.253 1333.03 329.469 1329.86 333.158C1325.12 340.009 1318.27 345.806 1315.64 352.657C1310.37 369.521 1307.2 386.385 1303.51 403.776C1300.35 418.005 1298.24 432.761 1295.61 446.99Z" fill="url(#paint0_linear_1_508)" fill-opacity="0.1"/>
    <defs>
        <linearGradient id="paint0_linear_1_508" x1="1691.17" y1="117.007" x2="-63.3635" y2="859.909" gradientUnits="userSpaceOnUse">
            <stop stop-color="#878787"/>
            <stop offset="0.25" stop-opacity="0.49"/>
            <stop offset="0.506341" stop-color="#BBBBBB" stop-opacity="0.71"/>
            <stop offset="0.830216" stop-opacity="0.19"/>
            <stop offset="1" stop-color="#656565" stop-opacity="0.34"/>
        </linearGradient>
    </defs>
</svg>
