<svg width="12.000000" height="12.000000" viewBox="0 0 12 12" fill="none" xmlns="http://www.w3.org/2000/svg" xmlns:xlink="http://www.w3.org/1999/xlink">
    <desc>
        Created with Pixso.
    </desc>
    <defs/>
    <path id="Vector" d="M9.98 8.4L10.03 8.45C10.15 8.56 10.29 8.64 10.44 8.69C10.6 8.73 10.76 8.74 10.92 8.71C11.07 8.67 11.22 8.6 11.34 8.5C11.46 8.4 11.55 8.26 11.6 8.12C11.88 7.39 12.01 6.62 11.99 5.85C11.94 4.32 11.31 2.88 10.24 1.79C9.17 0.71 7.73 0.07 6.2 0C5.4 -0.03 4.6 0.11 3.84 0.39C3.09 0.68 2.41 1.12 1.83 1.68C1.25 2.24 0.79 2.91 0.47 3.65C0.16 4.39 -1.53e-5 5.19 0 6C0 7.59 0.63 9.11 1.75 10.24C2.88 11.36 4.4 11.99 5.99 12C6.16 12 6.33 11.98 6.49 11.97C6.62 11.96 6.74 11.9 6.82 11.81C6.91 11.72 6.95 11.6 6.95 11.47L6.94 9.68C6.93 9.32 7.03 8.97 7.23 8.68C7.42 8.38 7.7 8.15 8.03 8.01C8.36 7.87 8.72 7.84 9.06 7.91C9.41 7.97 9.73 8.14 9.98 8.4ZM8.51 4.02C8.65 3.98 8.81 3.99 8.95 4.04C9.09 4.08 9.21 4.17 9.3 4.29C9.39 4.41 9.44 4.55 9.45 4.7C9.46 4.85 9.43 4.99 9.35 5.12C9.28 5.25 9.17 5.35 9.03 5.42C8.9 5.48 8.75 5.51 8.6 5.49C8.46 5.47 8.32 5.41 8.21 5.31C8.1 5.21 8.02 5.08 7.98 4.94C7.95 4.84 7.95 4.74 7.96 4.65C7.97 4.55 8 4.45 8.05 4.37C8.1 4.28 8.17 4.21 8.25 4.15C8.33 4.09 8.42 4.05 8.51 4.02ZM3.9 8.47C3.75 8.51 3.6 8.5 3.46 8.45C3.32 8.41 3.2 8.32 3.11 8.2C3.02 8.08 2.96 7.94 2.96 7.79C2.95 7.64 2.98 7.5 3.05 7.37C3.13 7.24 3.24 7.14 3.37 7.07C3.51 7.01 3.66 6.98 3.8 7C3.95 7.02 4.09 7.08 4.2 7.18C4.31 7.28 4.39 7.41 4.43 7.55C4.45 7.65 4.46 7.75 4.45 7.84C4.43 7.94 4.4 8.04 4.35 8.12C4.3 8.21 4.24 8.28 4.16 8.34C4.08 8.4 3.99 8.44 3.9 8.47ZM3.9 5.47C3.75 5.51 3.6 5.5 3.46 5.45C3.32 5.41 3.2 5.32 3.11 5.2C3.02 5.08 2.96 4.94 2.96 4.79C2.95 4.64 2.98 4.5 3.05 4.37C3.13 4.24 3.24 4.14 3.37 4.07C3.51 4.01 3.66 3.98 3.8 4C3.95 4.02 4.09 4.08 4.2 4.18C4.31 4.28 4.39 4.41 4.43 4.55C4.45 4.65 4.46 4.75 4.45 4.84C4.43 4.94 4.4 5.04 4.35 5.12C4.3 5.21 4.24 5.28 4.16 5.34C4.08 5.4 3.99 5.44 3.9 5.47ZM6.4 3.97C6.25 4.01 6.1 4 5.96 3.95C5.82 3.91 5.7 3.82 5.61 3.7C5.52 3.58 5.46 3.44 5.45 3.29C5.45 3.14 5.48 3 5.55 2.87C5.63 2.74 5.74 2.64 5.87 2.57C6.01 2.51 6.16 2.48 6.3 2.5C6.45 2.52 6.59 2.58 6.7 2.68C6.81 2.78 6.89 2.91 6.93 3.05C6.95 3.15 6.96 3.25 6.95 3.34C6.93 3.44 6.9 3.54 6.85 3.62C6.8 3.71 6.74 3.78 6.66 3.84C6.58 3.9 6.49 3.94 6.4 3.97Z" fill="#000000" fill-opacity="1.000000" fill-rule="nonzero"/>
</svg>
